Patient4_TMGait_0pt2_02_left_01_EMG.mot
version=1
nRows=16
nColumns=33
inDegrees=no
endheader
time	1LAddLong	2LGlutMax	3LGlutMed	4LIliopsoas	5LSemiMemb	6LBicFemLong	7LRecFem	8LVastMed	9LVastLat	10LGasMed	11LTibAnt	12lTibPost	13LPeroneusLong	14LSol	15LExtDigLong	16LFlexDigLong	17RAddLong	18RGlutMax	19RGlutMed	20RIliopsoas	21RSemiMemb	22RBicFemLong	23RRecFem	24RVastMed	25RVastLat	26RGasMed	27RTibAnt	28RTibPost	29RPeroneusLong	30RSol	31RExtDigLong	32RFlexDigLong
3.475	0.021362	-0.000458	-0.053101	0.001221	0.063629	-0.016785	0.035706	-0.005951	0.01236	0.013885	0.033264	-0.001984	-0.016022	0.028076	0.087585	-0.006409	0.007324	-0.029144	0.018616	0.13229	0.26428	-0.11322	0.08606	-0.11276	0.032654	-0.008698	-0.087128	-0.014801	-0.02594	0.042267	0.000153	-0.004578
3.476	0.025024	0.028839	-0.020142	0.000153	0.057526	-0.002594	0.044861	-0.011597	0.013428	0.00061	0.028992	-0.003815	-0.027161	0.053558	0.083313	-0.00885	0.072632	-0.085602	0.21179	0.087433	0.18555	-0.14099	0.12329	-0.19028	0.11276	0.005188	-0.00946	-0.024567	-0.14877	-0.06958	-0.001068	0.00351
3.477	0.017395	0.024414	0.004272	0.013123	0.032806	-0.030365	0.068665	-0.005341	-0.003204	-0.002594	0.029755	0.000458	-0.023041	0.034332	0.086975	0.001831	0.10925	-0.061188	-0.10117	-0.020599	0.1413	-0.18692	0.11337	0.21484	0.047455	0.001678	-0.058441	-0.017853	-0.10452	-0.084229	0.002747	-0.000916
3.478	0.010376	0.023193	-0.023956	0.029144	0.026245	-0.084076	0.089569	-0.006104	-0.005798	-0.007935	0.02594	0.009308	-0.043945	0.045624	0.062866	-0.001221	0.063782	0.011292	-0.40543	-0.065308	-0.042877	-0.097351	-0.015106	0.29526	0.057068	-0.002441	0.022736	-0.020905	-0.005646	-0.10773	0.00061	-0.005341
3.479	0.010834	0.0177	-0.059662	0.003204	0.022736	-0.04425	0.077209	-0.000153	0.009766	0.01236	0.028839	0.018921	-0.045013	0.043335	0.056915	0.00061	0.026245	-0.002289	-0.37735	-0.09491	-0.23727	-0.077057	0.009613	0.15595	0.011292	-0.007324	0.04715	-0.020142	0.081787	-0.086517	-0.002899	0.003052
3.48	0.007477	0.028076	-0.10117	-0.001068	0.006104	0.27802	0.055237	-0.002441	0.023346	-0.011749	0.029297	0.005646	-0.028839	0.032959	0.04425	-0.000916	-0.023651	0.015869	0.88379	-0.059357	-0.17029	0.012665	0.11917	-0.028381	-0.077209	-0.002289	0.24628	-0.019073	0.033722	-0.045013	-0.001373	0.001831
3.481	-0.000153	0.044098	-0.05661	0.013123	0.004272	0.37354	0.046387	-0.002747	0.030365	0.009613	0.019989	0.007629	0.031738	0.022125	0.039368	-0.005646	-0.063324	-0.01709	0.39642	0.058136	-0.014648	0.093689	0.20767	-0.23132	-0.049133	-0.001526	0.36896	-0.017242	0.037384	-0.097046	-0.000305	0.001373
3.482	0.003662	0.005035	0.023804	0.018463	0.000763	0.32883	0.023499	-0.002747	0.039368	0.010986	0.019073	0.007629	0.012665	0.025177	0.030212	0.001068	-0.03479	-0.043793	-0.13062	0.076294	-0.057983	0.15427	0.039063	-0.4274	0.018311	-0.006866	0.23743	-0.020905	-0.046234	-0.079041	-0.002899	-0.011139
3.483	0.012817	0.008698	0.06485	0.0177	-0.01709	0.35202	-0.00351	0.002594	0.029297	-0.006256	0.01297	0.005798	-0.019684	0.039368	0.016632	-0.001373	-0.035858	-0.032501	0.035095	-0.014648	0.041351	0.14069	-0.069733	-0.32852	0.19653	0.001221	-0.17273	-0.018921	-0.079803	-0.071869	0.001068	-0.010681
3.484	0.006561	-0.018768	0.011597	0.012665	-0.049286	0.092926	-0.031281	-0.000305	0.048218	0.001068	0.034485	0.002747	-0.005341	0.01709	0.036926	-0.005798	-0.027313	-0.061951	-0.13092	0.013123	0.15472	0.057831	0.069275	-0.28717	0.26749	-0.006866	-0.24597	-0.019531	-0.10391	-0.030365	-0.001068	-0.016022
3.485	-0.000153	-0.005951	0.070648	0.005341	-0.030365	-0.39063	0.005493	-0.005035	0.068054	0.020142	0.030212	0.004883	-0.014954	0.042419	0.00824	0.003052	-0.0354	-0.049133	-0.22553	0.10849	-0.006714	0.062408	0.11643	-0.10956	0.1445	-0.006714	-0.066833	-0.018158	-0.039825	-0.042725	-0.003052	-0.012207
3.486	-0.005798	0.035553	0.062866	-0.002594	0.034332	-0.46417	0.049438	0.000153	0.006714	0.001831	0.021362	0.007782	0.018005	0.033264	0.40497	-0.004578	-0.018921	-0.031281	-0.052948	0.112	-0.037079	0.018311	0.14587	0.011597	0.092468	-0.003815	0.009003	-0.018005	0.11841	-0.028534	-0.00061	-0.002136
3.487	-0.002289	-0.003815	0.032806	0.003052	0.091705	-0.24811	0.087738	-0.003662	-0.068817	-0.001221	-0.010681	0.013885	-0.005951	0.052795	0.41779	-0.001678	-0.010529	-0.043793	0.072327	0.005646	-0.10498	-0.017395	0.13886	-0.014343	0.09964	-0.002289	-0.011292	-0.019684	0.20248	-0.077209	-0.004272	-0.004425
3.488	0.001526	0.013123	-0.012207	0.007172	0.042267	-0.085754	0.052795	-0.002136	-0.00824	-0.007935	0.047607	0.006866	-0.016327	0.050049	-0.53253	0.001984	-0.015717	-0.014648	-0.039368	0.007019	-0.16052	-0.058899	0.10834	0.045624	0.06012	-0.007477	0.01236	-0.018921	0.121	-0.070648	-0.000305	-0.010529
3.489	-0.000305	0.046082	-0.025482	-0.004425	-0.003204	-0.041809	0.00885	-0.003967	0.053864	-0.005646	0.066376	0.00885	-0.050354	0.076141	-0.30624	-0.007172	0.033417	-0.045624	0.085297	-0.049896	-0.20752	-0.064697	0.08728	-0.018921	0.023193	-0.003052	-0.065613	-0.017548	0.06134	-0.093079	-0.001984	-0.004578
3.49	-0.000916	0.000153	-0.027924	-0.019531	-0.002441	0.056458	0.011749	0.003052	0.041504	-0.009003	-0.060272	0.00946	0.009308	0.073395	-0.25238	-0.00412	0.031281	-0.1059	0.11917	-0.13794	0.025177	0.009308	-0.23712	0.056915	0.052185	-0.00412	-0.11475	-0.017548	0.01297	-0.049286	-0.00473	0.003967
